# xmcd
#
# Track frame offsets:
#	182
#	10960
#	20300
#	31335
#	42382
#	53260
#	63815
#	73485
#	83350
#	93885
#	104017
#	112387
#	124235
#	133282
#	142570
#	152110
#	163740
#	174845
#
# Disc length: 2466 seconds
#
# Revision: 1
# Processed by: cddbd v1.4PL0 Copyright (c) Steve Scherf et al.
# Submitted via: audiograbber 1.81.02
#
DISCID=ea09a012
DTITLE=Little Richard - Jazz and Blues Collection n°57
DYEAR=1996
DGENRE=Blues
TTITLE0=Tutti Frutti
TTITLE1=Long Tall Sally
TTITLE2=The Girl Can't Help It
TTITLE3=Lucille
TTITLE4=Send Me Some Lovin'
TTITLE5=Rip It Up
TTITLE6=Keep a Knockin'
TTITLE7=Ready Teddy
TTITLE8=All Around the World
TTITLE9=Miss Ann
TTITLE10=Ooh my Soul
TTITLE11=True Fine Mam
TTITLE12=Jenny Jenny
TTITLE13=By the Light of the Silvery Moon
TTITLE14=Good Golly Miss Molly
TTITLE15=Slippin' n' Slidin'
TTITLE16=Can't Believe you Wanna Leave
TTITLE17=Bama Lama Bama Loo
EXTD=
EXTT0=
EXTT1=
EXTT2=
EXTT3=
EXTT4=
EXTT5=
EXTT6=
EXTT7=
EXTT8=
EXTT9=
EXTT10=
EXTT11=
EXTT12=
EXTT13=
EXTT14=
EXTT15=
EXTT16=
EXTT17=
PLAYORDER=
